M48
; DRILL file {KiCad 9.0.7} date 2026-04-23T19:09:45-0700
; FORMAT={-:-/ absolute / metric / decimal}
; #@! TF.CreationDate,2026-04-23T19:09:45-07:00
; #@! TF.GenerationSoftware,Kicad,Pcbnew,9.0.7
; #@! TF.FileFunction,Plated,1,2,PTH
FMAT,2
METRIC
; #@! TA.AperFunction,Plated,PTH,ViaDrill
T1C0.300
%
G90
G05
T1
X129.607Y-104.638
X130.207Y-107.37
X131.815Y-96.109
X132.31Y-95.48
X134.09Y-94.01
X134.907Y-93.98
X135.707Y-93.978
X136.507Y-93.995
X136.726Y-73.636
X137.3Y-93.89
X138.06Y-114.191
X138.86Y-114.191
X139.773Y-80.13
X141.849Y-86.469
X142.805Y-87.38
X146.38Y-89.59
X148.216Y-89.513
X148.29Y-90.31
X154.74Y-86.78
X155.54Y-86.18
X155.84Y-96.91
X157.63Y-84.52
X165.956Y-91.024
X166.549Y-89.921
X166.974Y-88.648
X167.902Y-92.97
X168.514Y-91.036
X177.0Y-112.99
M30
