%TF.GenerationSoftware,KiCad,Pcbnew,9.0.7*%
%TF.CreationDate,2026-04-23T19:09:41-07:00*%
%TF.ProjectId,Button,42757474-6f6e-42e6-9b69-6361645f7063,rev?*%
%TF.SameCoordinates,Original*%
%TF.FileFunction,Legend,Top*%
%TF.FilePolarity,Positive*%
%FSLAX46Y46*%
G04 Gerber Fmt 4.6, Leading zero omitted, Abs format (unit mm)*
G04 Created by KiCad (PCBNEW 9.0.7) date 2026-04-23 19:09:41*
%MOMM*%
%LPD*%
G01*
G04 APERTURE LIST*
%ADD10C,0.300000*%
%ADD11C,0.150000*%
%ADD12C,0.120000*%
G04 APERTURE END LIST*
D10*
G36*
X176340964Y-94341663D02*
G01*
X176462542Y-94379021D01*
X176567780Y-94439572D01*
X176659385Y-94524588D01*
X176731037Y-94626508D01*
X176783989Y-94747023D01*
X176817563Y-94889695D01*
X176829501Y-95058991D01*
X176829501Y-95166092D01*
X176829501Y-95245104D01*
X176838997Y-95287514D01*
X176865281Y-95311853D01*
X176914253Y-95321186D01*
X177001692Y-95321186D01*
X177055242Y-95310847D01*
X177084136Y-95283762D01*
X177094626Y-95236311D01*
X177086200Y-95151559D01*
X177074842Y-95046901D01*
X177087740Y-94982770D01*
X177125523Y-94933817D01*
X177182409Y-94902627D01*
X177260467Y-94891318D01*
X177319860Y-94897966D01*
X177368699Y-94916797D01*
X177409333Y-94947494D01*
X177440228Y-94987927D01*
X177459035Y-95035810D01*
X177465631Y-95093307D01*
X177451465Y-95326071D01*
X177437421Y-95558834D01*
X177445847Y-95760823D01*
X177460013Y-95898210D01*
X177465631Y-95973925D01*
X177459006Y-96031385D01*
X177440179Y-96078784D01*
X177409333Y-96118394D01*
X177368808Y-96148232D01*
X177319968Y-96166606D01*
X177260467Y-96173105D01*
X177186889Y-96161945D01*
X177128332Y-96129996D01*
X177087974Y-96081028D01*
X177074842Y-96022529D01*
X177084734Y-95952920D01*
X177094626Y-95888806D01*
X177086518Y-95860921D01*
X177060164Y-95838353D01*
X177005328Y-95820998D01*
X176904849Y-95813579D01*
X176132187Y-95813579D01*
X176017882Y-95819075D01*
X175975076Y-95834469D01*
X175952709Y-95857289D01*
X175945219Y-95888806D01*
X175955111Y-95954263D01*
X175965003Y-96022529D01*
X175951972Y-96081068D01*
X175912002Y-96129996D01*
X175853731Y-96161959D01*
X175780722Y-96173105D01*
X175721625Y-96166501D01*
X175672628Y-96147731D01*
X175631489Y-96117051D01*
X175600019Y-96076469D01*
X175580907Y-96028505D01*
X175574214Y-95970994D01*
X175574214Y-95962568D01*
X175574214Y-95951332D01*
X175588136Y-95746413D01*
X175602058Y-95538684D01*
X175591067Y-95243761D01*
X175585457Y-95151803D01*
X175948028Y-95151803D01*
X175956454Y-95253408D01*
X175980140Y-95294291D01*
X176023621Y-95315568D01*
X176107519Y-95321186D01*
X176356402Y-95321186D01*
X176426977Y-95316465D01*
X176452878Y-95307142D01*
X176465735Y-95285925D01*
X176473883Y-95230816D01*
X176476692Y-95185631D01*
X176473565Y-95072811D01*
X176452621Y-94990352D01*
X176417492Y-94930696D01*
X176368683Y-94888618D01*
X176303501Y-94861997D01*
X176216573Y-94852240D01*
X176117259Y-94864972D01*
X176045542Y-94899550D01*
X175994174Y-94954922D01*
X175960687Y-95035845D01*
X175948028Y-95151803D01*
X175585457Y-95151803D01*
X175577023Y-95013562D01*
X175588694Y-94861861D01*
X175621936Y-94730940D01*
X175675222Y-94617266D01*
X175748604Y-94518115D01*
X175840519Y-94435614D01*
X175944462Y-94377050D01*
X176062835Y-94341101D01*
X176199110Y-94328583D01*
X176340964Y-94341663D01*
G37*
G36*
X176735899Y-92862570D02*
G01*
X176785659Y-92882909D01*
X176813360Y-92922203D01*
X176824738Y-92999291D01*
X176824738Y-93684148D01*
X176828008Y-93729673D01*
X176834630Y-93747285D01*
X176848990Y-93755975D01*
X176884089Y-93759986D01*
X176960094Y-93751250D01*
X177025166Y-93726059D01*
X177081803Y-93684270D01*
X177125615Y-93629499D01*
X177151780Y-93566719D01*
X177160816Y-93493394D01*
X177148275Y-93419564D01*
X177107642Y-93340213D01*
X177030879Y-93251960D01*
X176979022Y-93191433D01*
X176949981Y-93130342D01*
X176940509Y-93066702D01*
X176952973Y-92988959D01*
X176988136Y-92930537D01*
X177041689Y-92891624D01*
X177108304Y-92878513D01*
X177183500Y-92888831D01*
X177253173Y-92919860D01*
X177319553Y-92974031D01*
X177383688Y-93056566D01*
X177445110Y-93179830D01*
X177483419Y-93322762D01*
X177496894Y-93489609D01*
X177483245Y-93654200D01*
X177444411Y-93795172D01*
X177382034Y-93916784D01*
X177295638Y-94022180D01*
X177189349Y-94107467D01*
X177066725Y-94169156D01*
X176924613Y-94207600D01*
X176758792Y-94221116D01*
X176591630Y-94207741D01*
X176447350Y-94169603D01*
X176321953Y-94108301D01*
X176212421Y-94023524D01*
X176122080Y-93918279D01*
X176057628Y-93799028D01*
X176017927Y-93663008D01*
X176005107Y-93517941D01*
X176301081Y-93517941D01*
X176310885Y-93588817D01*
X176339379Y-93648832D01*
X176387787Y-93700757D01*
X176444179Y-93735935D01*
X176488538Y-93745819D01*
X176516503Y-93737393D01*
X176523874Y-93723201D01*
X176527739Y-93678286D01*
X176527739Y-93363091D01*
X176524512Y-93325355D01*
X176517969Y-93311189D01*
X176482920Y-93301297D01*
X176437285Y-93308216D01*
X176395374Y-93329106D01*
X176355669Y-93366022D01*
X176314839Y-93435996D01*
X176301081Y-93517941D01*
X176005107Y-93517941D01*
X176004082Y-93506339D01*
X176015718Y-93359229D01*
X176048763Y-93233365D01*
X176101633Y-93125031D01*
X176174441Y-93031409D01*
X176264954Y-92954696D01*
X176369010Y-92899562D01*
X176489256Y-92865356D01*
X176629344Y-92853356D01*
X176735899Y-92862570D01*
G37*
G36*
X175885258Y-91864661D02*
G01*
X175853651Y-91859573D01*
X175812107Y-91841702D01*
X175800872Y-91898244D01*
X175810110Y-91961667D01*
X175834470Y-92002507D01*
X175873646Y-92027334D01*
X175933374Y-92036608D01*
X175989672Y-92036608D01*
X176019240Y-92029746D01*
X176036469Y-92010490D01*
X176043161Y-91974082D01*
X176043161Y-91888841D01*
X176053845Y-91812496D01*
X176081763Y-91763889D01*
X176126040Y-91734755D01*
X176192759Y-91723977D01*
X176263222Y-91734630D01*
X176309082Y-91762966D01*
X176337330Y-91809138D01*
X176347976Y-91880293D01*
X176347976Y-91974082D01*
X176355947Y-92008712D01*
X176378248Y-92028821D01*
X176420272Y-92036608D01*
X176979954Y-92036608D01*
X177077407Y-92033799D01*
X177111258Y-92022667D01*
X177129523Y-92003504D01*
X177135903Y-91974570D01*
X177130286Y-91923279D01*
X177121737Y-91857822D01*
X177131648Y-91798746D01*
X177158697Y-91759094D01*
X177204445Y-91733757D01*
X177277076Y-91723977D01*
X177350021Y-91736520D01*
X177407013Y-91772704D01*
X177444929Y-91827302D01*
X177457815Y-91895680D01*
X177440840Y-92066284D01*
X177435101Y-92228339D01*
X177443649Y-92418604D01*
X177457815Y-92566737D01*
X177444503Y-92638208D01*
X177406036Y-92692522D01*
X177347775Y-92727601D01*
X177270359Y-92740027D01*
X177197211Y-92730148D01*
X177151099Y-92704540D01*
X177123807Y-92664420D01*
X177113799Y-92604595D01*
X177122103Y-92554891D01*
X177130286Y-92516179D01*
X177119555Y-92493516D01*
X177077766Y-92475220D01*
X176974459Y-92466475D01*
X176420272Y-92466475D01*
X176370592Y-92474262D01*
X176353593Y-92491388D01*
X176347976Y-92527292D01*
X176347976Y-92593604D01*
X176338052Y-92660371D01*
X176311761Y-92703613D01*
X176269177Y-92730089D01*
X176203872Y-92740027D01*
X176130225Y-92729289D01*
X176082788Y-92700966D01*
X176053940Y-92655400D01*
X176043161Y-92585910D01*
X176043161Y-92535474D01*
X176038398Y-92492974D01*
X176027773Y-92473925D01*
X176006328Y-92463906D01*
X175953279Y-92457072D01*
X175859562Y-92443927D01*
X175778877Y-92414200D01*
X175708719Y-92368188D01*
X175647487Y-92304542D01*
X175587250Y-92202643D01*
X175548940Y-92076298D01*
X175535136Y-91919249D01*
X175545274Y-91786913D01*
X175573230Y-91680778D01*
X175616591Y-91595750D01*
X175678355Y-91526718D01*
X175749164Y-91487253D01*
X175832501Y-91473872D01*
X175885950Y-91480861D01*
X175932144Y-91501249D01*
X175972941Y-91535788D01*
X176003760Y-91579798D01*
X176022477Y-91630650D01*
X176028995Y-91690272D01*
X176018342Y-91760924D01*
X175988206Y-91815446D01*
X175941803Y-91852458D01*
X175885258Y-91864661D01*
G37*
G36*
X176735899Y-90252103D02*
G01*
X176785659Y-90272442D01*
X176813360Y-90311736D01*
X176824738Y-90388824D01*
X176824738Y-91073681D01*
X176828008Y-91119206D01*
X176834630Y-91136817D01*
X176848990Y-91145507D01*
X176884089Y-91149518D01*
X176960094Y-91140782D01*
X177025166Y-91115591D01*
X177081803Y-91073803D01*
X177125615Y-91019031D01*
X177151780Y-90956251D01*
X177160816Y-90882927D01*
X177148275Y-90809097D01*
X177107642Y-90729746D01*
X177030879Y-90641493D01*
X176979022Y-90580966D01*
X176949981Y-90519874D01*
X176940509Y-90456235D01*
X176952973Y-90378491D01*
X176988136Y-90320069D01*
X177041689Y-90281156D01*
X177108304Y-90268046D01*
X177183500Y-90278363D01*
X177253173Y-90309392D01*
X177319553Y-90363564D01*
X177383688Y-90446099D01*
X177445110Y-90569363D01*
X177483419Y-90712294D01*
X177496894Y-90879141D01*
X177483245Y-91043733D01*
X177444411Y-91184705D01*
X177382034Y-91306316D01*
X177295638Y-91411713D01*
X177189349Y-91497000D01*
X177066725Y-91558688D01*
X176924613Y-91597132D01*
X176758792Y-91610648D01*
X176591630Y-91597273D01*
X176447350Y-91559135D01*
X176321953Y-91497833D01*
X176212421Y-91413056D01*
X176122080Y-91307811D01*
X176057628Y-91188560D01*
X176017927Y-91052540D01*
X176005107Y-90907473D01*
X176301081Y-90907473D01*
X176310885Y-90978350D01*
X176339379Y-91038364D01*
X176387787Y-91090289D01*
X176444179Y-91125467D01*
X176488538Y-91135352D01*
X176516503Y-91126926D01*
X176523874Y-91112733D01*
X176527739Y-91067819D01*
X176527739Y-90752623D01*
X176524512Y-90714888D01*
X176517969Y-90700722D01*
X176482920Y-90690830D01*
X176437285Y-90697749D01*
X176395374Y-90718638D01*
X176355669Y-90755554D01*
X176314839Y-90825528D01*
X176301081Y-90907473D01*
X176005107Y-90907473D01*
X176004082Y-90895872D01*
X176015718Y-90748762D01*
X176048763Y-90622898D01*
X176101633Y-90514564D01*
X176174441Y-90420942D01*
X176264954Y-90344229D01*
X176369010Y-90289095D01*
X176489256Y-90254888D01*
X176629344Y-90242889D01*
X176735899Y-90252103D01*
G37*
G36*
X176484874Y-89269825D02*
G01*
X176443836Y-89263104D01*
X176400732Y-89241615D01*
X176367008Y-89309086D01*
X176355792Y-89383276D01*
X176367169Y-89459635D01*
X176400541Y-89524814D01*
X176458129Y-89581845D01*
X176530132Y-89622650D01*
X176619827Y-89648741D01*
X176731681Y-89658171D01*
X176846972Y-89648222D01*
X176939955Y-89620602D01*
X177015125Y-89577205D01*
X177074711Y-89516731D01*
X177109687Y-89446088D01*
X177121737Y-89361782D01*
X177112677Y-89298628D01*
X177086319Y-89245451D01*
X177041284Y-89199656D01*
X176972993Y-89160526D01*
X176890078Y-89119940D01*
X176855146Y-89093360D01*
X176830996Y-89047018D01*
X176821441Y-88970383D01*
X176828228Y-88909389D01*
X176847499Y-88858915D01*
X176878960Y-88816632D01*
X176920395Y-88784244D01*
X176968755Y-88764699D01*
X177026116Y-88757892D01*
X177115970Y-88768855D01*
X177199689Y-88801658D01*
X177279537Y-88858133D01*
X177356821Y-88942540D01*
X177417402Y-89038009D01*
X177460937Y-89142354D01*
X177487671Y-89257181D01*
X177496894Y-89384497D01*
X177483177Y-89547141D01*
X177444141Y-89686337D01*
X177381378Y-89806365D01*
X177294295Y-89910352D01*
X177187547Y-89993971D01*
X177063716Y-90054721D01*
X176919517Y-90092720D01*
X176750610Y-90106113D01*
X176580452Y-90092316D01*
X176435714Y-90053205D01*
X176311850Y-89990675D01*
X176205460Y-89904490D01*
X176119272Y-89797920D01*
X176056823Y-89674279D01*
X176017822Y-89530257D01*
X176004082Y-89361416D01*
X176017998Y-89200726D01*
X176057209Y-89066621D01*
X176119731Y-88954019D01*
X176183811Y-88881467D01*
X176253132Y-88832167D01*
X176328980Y-88802991D01*
X176413677Y-88793063D01*
X176484725Y-88801624D01*
X176543672Y-88826073D01*
X176593318Y-88866458D01*
X176630652Y-88918887D01*
X176653538Y-88980968D01*
X176661584Y-89055380D01*
X176648601Y-89144382D01*
X176612491Y-89210596D01*
X176576346Y-89243599D01*
X176534451Y-89263100D01*
X176484874Y-89269825D01*
G37*
G36*
X176429064Y-88029926D02*
G01*
X176543736Y-88029926D01*
X176717149Y-88032735D01*
X176904605Y-88038353D01*
X176980198Y-88041161D01*
X177061378Y-88032383D01*
X177109643Y-88010618D01*
X177136054Y-87978952D01*
X177145184Y-87934794D01*
X177136754Y-87892421D01*
X177112644Y-87862417D01*
X177069216Y-87842067D01*
X176996929Y-87833921D01*
X176963346Y-87836730D01*
X176927076Y-87836730D01*
X176899110Y-87839539D01*
X176830482Y-87829193D01*
X176785852Y-87801691D01*
X176758389Y-87756922D01*
X176748046Y-87687986D01*
X176758012Y-87627707D01*
X176786453Y-87581496D01*
X176835572Y-87545802D01*
X176912744Y-87521001D01*
X177029169Y-87511277D01*
X177137886Y-87520349D01*
X177229477Y-87545983D01*
X177307099Y-87586889D01*
X177373063Y-87643290D01*
X177425255Y-87712452D01*
X177463756Y-87794947D01*
X177488186Y-87893416D01*
X177496894Y-88011242D01*
X177485741Y-88141086D01*
X177455110Y-88243278D01*
X177407500Y-88323632D01*
X177342902Y-88386239D01*
X177258804Y-88433013D01*
X177150528Y-88463426D01*
X177011706Y-88474570D01*
X176777477Y-88467609D01*
X176543126Y-88460526D01*
X176453977Y-88460526D01*
X176390874Y-88464724D01*
X176366172Y-88473227D01*
X176353543Y-88491553D01*
X176347976Y-88533555D01*
X176347976Y-88578496D01*
X176337730Y-88626986D01*
X176307065Y-88665568D01*
X176261519Y-88690401D01*
X176201186Y-88699274D01*
X176140166Y-88690273D01*
X176089811Y-88664225D01*
X176054197Y-88624903D01*
X176043161Y-88581549D01*
X176043161Y-88528304D01*
X176031833Y-88472098D01*
X176003960Y-88449780D01*
X175928611Y-88441353D01*
X175791591Y-88441353D01*
X175728678Y-88434561D01*
X175685864Y-88416792D01*
X175657501Y-88389818D01*
X175632182Y-88326560D01*
X175621109Y-88201995D01*
X175629647Y-88113427D01*
X175649075Y-88069738D01*
X175687572Y-88045536D01*
X175771929Y-88034933D01*
X175922993Y-88034933D01*
X175996022Y-88029810D01*
X176023621Y-88019546D01*
X176036919Y-87996931D01*
X176043161Y-87939923D01*
X176043161Y-87738667D01*
X176054066Y-87662851D01*
X176082737Y-87614207D01*
X176128644Y-87584767D01*
X176198377Y-87573803D01*
X176266533Y-87583967D01*
X176310717Y-87610915D01*
X176337801Y-87654614D01*
X176347976Y-87721692D01*
X176347976Y-87948715D01*
X176354300Y-88000163D01*
X176367637Y-88018813D01*
X176390251Y-88026667D01*
X176429064Y-88029926D01*
G37*
G36*
X176043039Y-86811765D02*
G01*
X176054095Y-86769897D01*
X176086798Y-86744088D01*
X176151971Y-86733607D01*
X176993021Y-86733607D01*
X177085962Y-86724689D01*
X177124956Y-86705555D01*
X177135537Y-86680607D01*
X177128698Y-86638963D01*
X177121737Y-86588649D01*
X177130819Y-86535657D01*
X177155744Y-86499857D01*
X177198228Y-86476810D01*
X177266085Y-86467871D01*
X177355679Y-86479964D01*
X177412148Y-86511307D01*
X177445564Y-86560399D01*
X177457815Y-86633590D01*
X177443161Y-86791004D01*
X177434368Y-86970767D01*
X177446092Y-87119633D01*
X177457815Y-87265690D01*
X177444620Y-87335100D01*
X177406036Y-87389277D01*
X177348131Y-87424653D01*
X177273168Y-87437027D01*
X177198239Y-87427162D01*
X177151335Y-87401732D01*
X177123823Y-87362239D01*
X177113799Y-87303792D01*
X177135537Y-87231496D01*
X177135537Y-87212445D01*
X177124863Y-87190204D01*
X177083010Y-87172136D01*
X176979099Y-87163475D01*
X176526395Y-87163475D01*
X176419717Y-87171813D01*
X176377495Y-87189007D01*
X176367027Y-87209637D01*
X176381315Y-87259584D01*
X176387055Y-87304036D01*
X176377129Y-87362557D01*
X176349963Y-87401967D01*
X176303834Y-87427245D01*
X176230373Y-87437027D01*
X176152967Y-87424625D01*
X176094818Y-87389644D01*
X176056346Y-87335346D01*
X176043039Y-87263981D01*
X176049023Y-87174710D01*
X176058792Y-87018394D01*
X176050976Y-86895540D01*
X176043039Y-86811765D01*
G37*
G36*
X175933740Y-86971866D02*
G01*
X175925357Y-87037744D01*
X175900614Y-87096686D01*
X175858391Y-87150652D01*
X175804354Y-87192892D01*
X175745448Y-87217627D01*
X175679727Y-87226001D01*
X175612026Y-87217653D01*
X175552732Y-87193265D01*
X175499720Y-87152117D01*
X175458502Y-87099019D01*
X175434075Y-87039644D01*
X175425715Y-86971866D01*
X175434071Y-86904254D01*
X175458493Y-86844999D01*
X175499720Y-86791981D01*
X175552741Y-86750761D01*
X175612034Y-86726335D01*
X175679727Y-86717976D01*
X175747343Y-86726329D01*
X175806641Y-86750750D01*
X175859734Y-86791981D01*
X175900961Y-86844999D01*
X175925384Y-86904254D01*
X175933740Y-86971866D01*
G37*
G36*
X176915284Y-84970564D02*
G01*
X177064897Y-85007297D01*
X177190357Y-85065178D01*
X177295638Y-85143586D01*
X177381624Y-85242806D01*
X177443972Y-85359837D01*
X177483054Y-85498228D01*
X177496894Y-85662847D01*
X177483206Y-85835389D01*
X177444802Y-85978920D01*
X177384094Y-86098740D01*
X177301256Y-86198838D01*
X177198397Y-86278467D01*
X177075227Y-86337181D01*
X176927676Y-86374458D01*
X176750488Y-86387759D01*
X176574712Y-86374604D01*
X176427733Y-86337675D01*
X176304492Y-86279410D01*
X176201064Y-86200303D01*
X176117229Y-86100691D01*
X176056109Y-85982462D01*
X176017627Y-85841890D01*
X176003960Y-85673960D01*
X176004070Y-85672616D01*
X176347976Y-85672616D01*
X176359968Y-85749488D01*
X176394982Y-85813535D01*
X176455565Y-85868133D01*
X176530717Y-85905981D01*
X176627217Y-85930734D01*
X176750488Y-85939818D01*
X176875538Y-85930662D01*
X176972295Y-85905848D01*
X177046632Y-85868133D01*
X177106007Y-85813475D01*
X177140813Y-85747684D01*
X177152878Y-85666999D01*
X177142678Y-85590336D01*
X177113834Y-85529415D01*
X177065944Y-85480341D01*
X176994753Y-85441834D01*
X176892855Y-85415478D01*
X176750488Y-85405415D01*
X176608643Y-85415603D01*
X176506890Y-85442325D01*
X176435572Y-85481466D01*
X176387410Y-85531525D01*
X176358295Y-85593900D01*
X176347976Y-85672616D01*
X176004070Y-85672616D01*
X176017398Y-85509151D01*
X176055424Y-85369601D01*
X176116126Y-85250750D01*
X176199720Y-85149204D01*
X176302816Y-85067705D01*
X176424079Y-85008186D01*
X176567063Y-84970740D01*
X176736444Y-84957473D01*
X176915284Y-84970564D01*
G37*
G36*
X176121441Y-84230607D02*
G01*
X176255896Y-84230607D01*
X176140903Y-84113561D01*
X176063732Y-83994909D01*
X176018964Y-83872786D01*
X176004082Y-83744319D01*
X176013837Y-83628980D01*
X176041212Y-83533448D01*
X176084631Y-83453957D01*
X176144276Y-83387786D01*
X176222069Y-83333503D01*
X176299884Y-83300980D01*
X176413424Y-83278114D01*
X176574023Y-83269267D01*
X176993021Y-83269267D01*
X177085282Y-83259939D01*
X177124615Y-83239697D01*
X177135537Y-83212725D01*
X177127233Y-83170348D01*
X177121737Y-83127972D01*
X177130949Y-83073040D01*
X177156088Y-83036174D01*
X177198600Y-83012621D01*
X177266085Y-83003531D01*
X177355376Y-83015748D01*
X177411868Y-83047508D01*
X177445458Y-83097488D01*
X177457815Y-83172302D01*
X177446702Y-83307369D01*
X177435467Y-83442313D01*
X177446702Y-83591301D01*
X177457815Y-83720750D01*
X177446320Y-83795843D01*
X177415651Y-83844895D01*
X177365456Y-83875242D01*
X177287822Y-83886713D01*
X177217481Y-83877916D01*
X177172146Y-83855109D01*
X177144311Y-83819929D01*
X177131629Y-83768866D01*
X177120340Y-83723581D01*
X177097772Y-83699661D01*
X177062020Y-83691318D01*
X176671964Y-83691318D01*
X176563487Y-83697380D01*
X176490981Y-83712672D01*
X176444696Y-83733817D01*
X176409473Y-83767152D01*
X176387383Y-83813748D01*
X176379239Y-83878286D01*
X176388226Y-83952386D01*
X176414129Y-84015253D01*
X176457274Y-84069528D01*
X176513143Y-84110848D01*
X176578202Y-84135898D01*
X176655111Y-84144633D01*
X176945027Y-84144633D01*
X177058412Y-84140687D01*
X177096824Y-84133276D01*
X177117176Y-84113974D01*
X177131629Y-84067575D01*
X177145731Y-84023648D01*
X177173117Y-83992800D01*
X177216403Y-83972630D01*
X177282205Y-83964870D01*
X177364585Y-83975816D01*
X177416283Y-84004088D01*
X177446706Y-84048132D01*
X177457815Y-84113492D01*
X177449389Y-84217173D01*
X177435467Y-84371413D01*
X177446702Y-84521378D01*
X177457815Y-84671465D01*
X177445346Y-84750808D01*
X177411865Y-84803036D01*
X177356554Y-84835649D01*
X177270359Y-84848053D01*
X177197064Y-84838234D01*
X177150963Y-84812826D01*
X177123755Y-84773133D01*
X177113799Y-84714085D01*
X177124668Y-84663893D01*
X177135537Y-84622006D01*
X177125029Y-84600559D01*
X177083394Y-84582969D01*
X176979344Y-84574501D01*
X176527128Y-84574501D01*
X176420928Y-84583012D01*
X176378611Y-84600642D01*
X176368004Y-84622006D01*
X176377529Y-84665359D01*
X176387055Y-84714207D01*
X176377193Y-84773397D01*
X176350326Y-84813043D01*
X176305001Y-84838313D01*
X176233182Y-84848053D01*
X176155425Y-84836014D01*
X176096161Y-84802013D01*
X176056562Y-84749198D01*
X176043039Y-84680624D01*
X176056960Y-84585003D01*
X176065387Y-84511974D01*
X176054274Y-84396570D01*
X176043039Y-84306566D01*
X176052114Y-84263672D01*
X176076698Y-84239636D01*
X176121441Y-84230607D01*
G37*
X145243558Y-109032019D02*
X145910225Y-109032019D01*
X146195939Y-110079638D02*
X145243558Y-110079638D01*
X145243558Y-110079638D02*
X145243558Y-108079638D01*
X145243558Y-108079638D02*
X146195939Y-108079638D01*
X147053082Y-108746304D02*
X147053082Y-110079638D01*
X147053082Y-108936780D02*
X147148320Y-108841542D01*
X147148320Y-108841542D02*
X147338796Y-108746304D01*
X147338796Y-108746304D02*
X147624511Y-108746304D01*
X147624511Y-108746304D02*
X147814987Y-108841542D01*
X147814987Y-108841542D02*
X147910225Y-109032019D01*
X147910225Y-109032019D02*
X147910225Y-110079638D01*
X149719749Y-108746304D02*
X149719749Y-110365352D01*
X149719749Y-110365352D02*
X149624511Y-110555828D01*
X149624511Y-110555828D02*
X149529273Y-110651066D01*
X149529273Y-110651066D02*
X149338796Y-110746304D01*
X149338796Y-110746304D02*
X149053082Y-110746304D01*
X149053082Y-110746304D02*
X148862606Y-110651066D01*
X149719749Y-109984400D02*
X149529273Y-110079638D01*
X149529273Y-110079638D02*
X149148320Y-110079638D01*
X149148320Y-110079638D02*
X148957844Y-109984400D01*
X148957844Y-109984400D02*
X148862606Y-109889161D01*
X148862606Y-109889161D02*
X148767368Y-109698685D01*
X148767368Y-109698685D02*
X148767368Y-109127257D01*
X148767368Y-109127257D02*
X148862606Y-108936780D01*
X148862606Y-108936780D02*
X148957844Y-108841542D01*
X148957844Y-108841542D02*
X149148320Y-108746304D01*
X149148320Y-108746304D02*
X149529273Y-108746304D01*
X149529273Y-108746304D02*
X149719749Y-108841542D01*
X150672130Y-110079638D02*
X150672130Y-108746304D01*
X150672130Y-108079638D02*
X150576892Y-108174876D01*
X150576892Y-108174876D02*
X150672130Y-108270114D01*
X150672130Y-108270114D02*
X150767368Y-108174876D01*
X150767368Y-108174876D02*
X150672130Y-108079638D01*
X150672130Y-108079638D02*
X150672130Y-108270114D01*
X151624511Y-108746304D02*
X151624511Y-110079638D01*
X151624511Y-108936780D02*
X151719749Y-108841542D01*
X151719749Y-108841542D02*
X151910225Y-108746304D01*
X151910225Y-108746304D02*
X152195940Y-108746304D01*
X152195940Y-108746304D02*
X152386416Y-108841542D01*
X152386416Y-108841542D02*
X152481654Y-109032019D01*
X152481654Y-109032019D02*
X152481654Y-110079638D01*
X154195940Y-109984400D02*
X154005464Y-110079638D01*
X154005464Y-110079638D02*
X153624511Y-110079638D01*
X153624511Y-110079638D02*
X153434035Y-109984400D01*
X153434035Y-109984400D02*
X153338797Y-109793923D01*
X153338797Y-109793923D02*
X153338797Y-109032019D01*
X153338797Y-109032019D02*
X153434035Y-108841542D01*
X153434035Y-108841542D02*
X153624511Y-108746304D01*
X153624511Y-108746304D02*
X154005464Y-108746304D01*
X154005464Y-108746304D02*
X154195940Y-108841542D01*
X154195940Y-108841542D02*
X154291178Y-109032019D01*
X154291178Y-109032019D02*
X154291178Y-109222495D01*
X154291178Y-109222495D02*
X153338797Y-109412971D01*
X155910226Y-109984400D02*
X155719750Y-110079638D01*
X155719750Y-110079638D02*
X155338797Y-110079638D01*
X155338797Y-110079638D02*
X155148321Y-109984400D01*
X155148321Y-109984400D02*
X155053083Y-109793923D01*
X155053083Y-109793923D02*
X155053083Y-109032019D01*
X155053083Y-109032019D02*
X155148321Y-108841542D01*
X155148321Y-108841542D02*
X155338797Y-108746304D01*
X155338797Y-108746304D02*
X155719750Y-108746304D01*
X155719750Y-108746304D02*
X155910226Y-108841542D01*
X155910226Y-108841542D02*
X156005464Y-109032019D01*
X156005464Y-109032019D02*
X156005464Y-109222495D01*
X156005464Y-109222495D02*
X155053083Y-109412971D01*
X156862607Y-110079638D02*
X156862607Y-108746304D01*
X156862607Y-109127257D02*
X156957845Y-108936780D01*
X156957845Y-108936780D02*
X157053083Y-108841542D01*
X157053083Y-108841542D02*
X157243559Y-108746304D01*
X157243559Y-108746304D02*
X157434036Y-108746304D01*
X158862607Y-109984400D02*
X158672131Y-110079638D01*
X158672131Y-110079638D02*
X158291178Y-110079638D01*
X158291178Y-110079638D02*
X158100702Y-109984400D01*
X158100702Y-109984400D02*
X158005464Y-109793923D01*
X158005464Y-109793923D02*
X158005464Y-109032019D01*
X158005464Y-109032019D02*
X158100702Y-108841542D01*
X158100702Y-108841542D02*
X158291178Y-108746304D01*
X158291178Y-108746304D02*
X158672131Y-108746304D01*
X158672131Y-108746304D02*
X158862607Y-108841542D01*
X158862607Y-108841542D02*
X158957845Y-109032019D01*
X158957845Y-109032019D02*
X158957845Y-109222495D01*
X158957845Y-109222495D02*
X158005464Y-109412971D01*
X160672131Y-110079638D02*
X160672131Y-108079638D01*
X160672131Y-109984400D02*
X160481655Y-110079638D01*
X160481655Y-110079638D02*
X160100702Y-110079638D01*
X160100702Y-110079638D02*
X159910226Y-109984400D01*
X159910226Y-109984400D02*
X159814988Y-109889161D01*
X159814988Y-109889161D02*
X159719750Y-109698685D01*
X159719750Y-109698685D02*
X159719750Y-109127257D01*
X159719750Y-109127257D02*
X159814988Y-108936780D01*
X159814988Y-108936780D02*
X159910226Y-108841542D01*
X159910226Y-108841542D02*
X160100702Y-108746304D01*
X160100702Y-108746304D02*
X160481655Y-108746304D01*
X160481655Y-108746304D02*
X160672131Y-108841542D01*
X131913558Y-98142495D02*
X134770701Y-98142495D01*
X133342129Y-103142495D02*
X133342129Y-98142495D01*
X138580225Y-103142495D02*
X138580225Y-100523447D01*
X138580225Y-100523447D02*
X138342130Y-100047257D01*
X138342130Y-100047257D02*
X137865939Y-99809161D01*
X137865939Y-99809161D02*
X136913558Y-99809161D01*
X136913558Y-99809161D02*
X136437368Y-100047257D01*
X138580225Y-102904400D02*
X138104034Y-103142495D01*
X138104034Y-103142495D02*
X136913558Y-103142495D01*
X136913558Y-103142495D02*
X136437368Y-102904400D01*
X136437368Y-102904400D02*
X136199272Y-102428209D01*
X136199272Y-102428209D02*
X136199272Y-101952019D01*
X136199272Y-101952019D02*
X136437368Y-101475828D01*
X136437368Y-101475828D02*
X136913558Y-101237733D01*
X136913558Y-101237733D02*
X138104034Y-101237733D01*
X138104034Y-101237733D02*
X138580225Y-100999638D01*
X141675463Y-103142495D02*
X141199273Y-102904400D01*
X141199273Y-102904400D02*
X140961178Y-102428209D01*
X140961178Y-102428209D02*
X140961178Y-98142495D01*
X144294511Y-103142495D02*
X143818321Y-102904400D01*
X143818321Y-102904400D02*
X143580226Y-102666304D01*
X143580226Y-102666304D02*
X143342130Y-102190114D01*
X143342130Y-102190114D02*
X143342130Y-100761542D01*
X143342130Y-100761542D02*
X143580226Y-100285352D01*
X143580226Y-100285352D02*
X143818321Y-100047257D01*
X143818321Y-100047257D02*
X144294511Y-99809161D01*
X144294511Y-99809161D02*
X145008797Y-99809161D01*
X145008797Y-99809161D02*
X145484988Y-100047257D01*
X145484988Y-100047257D02*
X145723083Y-100285352D01*
X145723083Y-100285352D02*
X145961178Y-100761542D01*
X145961178Y-100761542D02*
X145961178Y-102190114D01*
X145961178Y-102190114D02*
X145723083Y-102666304D01*
X145723083Y-102666304D02*
X145484988Y-102904400D01*
X145484988Y-102904400D02*
X145008797Y-103142495D01*
X145008797Y-103142495D02*
X144294511Y-103142495D01*
X148104036Y-99809161D02*
X148104036Y-103142495D01*
X148104036Y-100285352D02*
X148342131Y-100047257D01*
X148342131Y-100047257D02*
X148818321Y-99809161D01*
X148818321Y-99809161D02*
X149532607Y-99809161D01*
X149532607Y-99809161D02*
X150008798Y-100047257D01*
X150008798Y-100047257D02*
X150246893Y-100523447D01*
X150246893Y-100523447D02*
X150246893Y-103142495D01*
X155723084Y-98142495D02*
X158580227Y-98142495D01*
X157151655Y-103142495D02*
X157151655Y-98142495D01*
X162151656Y-102904400D02*
X161675465Y-103142495D01*
X161675465Y-103142495D02*
X160723084Y-103142495D01*
X160723084Y-103142495D02*
X160246894Y-102904400D01*
X160246894Y-102904400D02*
X160008798Y-102428209D01*
X160008798Y-102428209D02*
X160008798Y-100523447D01*
X160008798Y-100523447D02*
X160246894Y-100047257D01*
X160246894Y-100047257D02*
X160723084Y-99809161D01*
X160723084Y-99809161D02*
X161675465Y-99809161D01*
X161675465Y-99809161D02*
X162151656Y-100047257D01*
X162151656Y-100047257D02*
X162389751Y-100523447D01*
X162389751Y-100523447D02*
X162389751Y-100999638D01*
X162389751Y-100999638D02*
X160008798Y-101475828D01*
X166675465Y-102904400D02*
X166199274Y-103142495D01*
X166199274Y-103142495D02*
X165246893Y-103142495D01*
X165246893Y-103142495D02*
X164770703Y-102904400D01*
X164770703Y-102904400D02*
X164532608Y-102666304D01*
X164532608Y-102666304D02*
X164294512Y-102190114D01*
X164294512Y-102190114D02*
X164294512Y-100761542D01*
X164294512Y-100761542D02*
X164532608Y-100285352D01*
X164532608Y-100285352D02*
X164770703Y-100047257D01*
X164770703Y-100047257D02*
X165246893Y-99809161D01*
X165246893Y-99809161D02*
X166199274Y-99809161D01*
X166199274Y-99809161D02*
X166675465Y-100047257D01*
X168818322Y-103142495D02*
X168818322Y-98142495D01*
X170961179Y-103142495D02*
X170961179Y-100523447D01*
X170961179Y-100523447D02*
X170723084Y-100047257D01*
X170723084Y-100047257D02*
X170246893Y-99809161D01*
X170246893Y-99809161D02*
X169532607Y-99809161D01*
X169532607Y-99809161D02*
X169056417Y-100047257D01*
X169056417Y-100047257D02*
X168818322Y-100285352D01*
D11*
X127856667Y-77577200D02*
X127999524Y-77624819D01*
X127999524Y-77624819D02*
X128237619Y-77624819D01*
X128237619Y-77624819D02*
X128332857Y-77577200D01*
X128332857Y-77577200D02*
X128380476Y-77529580D01*
X128380476Y-77529580D02*
X128428095Y-77434342D01*
X128428095Y-77434342D02*
X128428095Y-77339104D01*
X128428095Y-77339104D02*
X128380476Y-77243866D01*
X128380476Y-77243866D02*
X128332857Y-77196247D01*
X128332857Y-77196247D02*
X128237619Y-77148628D01*
X128237619Y-77148628D02*
X128047143Y-77101009D01*
X128047143Y-77101009D02*
X127951905Y-77053390D01*
X127951905Y-77053390D02*
X127904286Y-77005771D01*
X127904286Y-77005771D02*
X127856667Y-76910533D01*
X127856667Y-76910533D02*
X127856667Y-76815295D01*
X127856667Y-76815295D02*
X127904286Y-76720057D01*
X127904286Y-76720057D02*
X127951905Y-76672438D01*
X127951905Y-76672438D02*
X128047143Y-76624819D01*
X128047143Y-76624819D02*
X128285238Y-76624819D01*
X128285238Y-76624819D02*
X128428095Y-76672438D01*
X128761429Y-76624819D02*
X128999524Y-77624819D01*
X128999524Y-77624819D02*
X129190000Y-76910533D01*
X129190000Y-76910533D02*
X129380476Y-77624819D01*
X129380476Y-77624819D02*
X129618572Y-76624819D01*
X130523333Y-77624819D02*
X129951905Y-77624819D01*
X130237619Y-77624819D02*
X130237619Y-76624819D01*
X130237619Y-76624819D02*
X130142381Y-76767676D01*
X130142381Y-76767676D02*
X130047143Y-76862914D01*
X130047143Y-76862914D02*
X129951905Y-76910533D01*
X169431905Y-79334819D02*
X169431905Y-78334819D01*
X169431905Y-78334819D02*
X169670000Y-78334819D01*
X169670000Y-78334819D02*
X169812857Y-78382438D01*
X169812857Y-78382438D02*
X169908095Y-78477676D01*
X169908095Y-78477676D02*
X169955714Y-78572914D01*
X169955714Y-78572914D02*
X170003333Y-78763390D01*
X170003333Y-78763390D02*
X170003333Y-78906247D01*
X170003333Y-78906247D02*
X169955714Y-79096723D01*
X169955714Y-79096723D02*
X169908095Y-79191961D01*
X169908095Y-79191961D02*
X169812857Y-79287200D01*
X169812857Y-79287200D02*
X169670000Y-79334819D01*
X169670000Y-79334819D02*
X169431905Y-79334819D01*
X170860476Y-78334819D02*
X170670000Y-78334819D01*
X170670000Y-78334819D02*
X170574762Y-78382438D01*
X170574762Y-78382438D02*
X170527143Y-78430057D01*
X170527143Y-78430057D02*
X170431905Y-78572914D01*
X170431905Y-78572914D02*
X170384286Y-78763390D01*
X170384286Y-78763390D02*
X170384286Y-79144342D01*
X170384286Y-79144342D02*
X170431905Y-79239580D01*
X170431905Y-79239580D02*
X170479524Y-79287200D01*
X170479524Y-79287200D02*
X170574762Y-79334819D01*
X170574762Y-79334819D02*
X170765238Y-79334819D01*
X170765238Y-79334819D02*
X170860476Y-79287200D01*
X170860476Y-79287200D02*
X170908095Y-79239580D01*
X170908095Y-79239580D02*
X170955714Y-79144342D01*
X170955714Y-79144342D02*
X170955714Y-78906247D01*
X170955714Y-78906247D02*
X170908095Y-78811009D01*
X170908095Y-78811009D02*
X170860476Y-78763390D01*
X170860476Y-78763390D02*
X170765238Y-78715771D01*
X170765238Y-78715771D02*
X170574762Y-78715771D01*
X170574762Y-78715771D02*
X170479524Y-78763390D01*
X170479524Y-78763390D02*
X170431905Y-78811009D01*
X170431905Y-78811009D02*
X170384286Y-78906247D01*
X166504405Y-83574819D02*
X166504405Y-82574819D01*
X166504405Y-82574819D02*
X166742500Y-82574819D01*
X166742500Y-82574819D02*
X166885357Y-82622438D01*
X166885357Y-82622438D02*
X166980595Y-82717676D01*
X166980595Y-82717676D02*
X167028214Y-82812914D01*
X167028214Y-82812914D02*
X167075833Y-83003390D01*
X167075833Y-83003390D02*
X167075833Y-83146247D01*
X167075833Y-83146247D02*
X167028214Y-83336723D01*
X167028214Y-83336723D02*
X166980595Y-83431961D01*
X166980595Y-83431961D02*
X166885357Y-83527200D01*
X166885357Y-83527200D02*
X166742500Y-83574819D01*
X166742500Y-83574819D02*
X166504405Y-83574819D01*
X167980595Y-82574819D02*
X167504405Y-82574819D01*
X167504405Y-82574819D02*
X167456786Y-83051009D01*
X167456786Y-83051009D02*
X167504405Y-83003390D01*
X167504405Y-83003390D02*
X167599643Y-82955771D01*
X167599643Y-82955771D02*
X167837738Y-82955771D01*
X167837738Y-82955771D02*
X167932976Y-83003390D01*
X167932976Y-83003390D02*
X167980595Y-83051009D01*
X167980595Y-83051009D02*
X168028214Y-83146247D01*
X168028214Y-83146247D02*
X168028214Y-83384342D01*
X168028214Y-83384342D02*
X167980595Y-83479580D01*
X167980595Y-83479580D02*
X167932976Y-83527200D01*
X167932976Y-83527200D02*
X167837738Y-83574819D01*
X167837738Y-83574819D02*
X167599643Y-83574819D01*
X167599643Y-83574819D02*
X167504405Y-83527200D01*
X167504405Y-83527200D02*
X167456786Y-83479580D01*
X171084819Y-89688094D02*
X170084819Y-89688094D01*
X170084819Y-89688094D02*
X170084819Y-89449999D01*
X170084819Y-89449999D02*
X170132438Y-89307142D01*
X170132438Y-89307142D02*
X170227676Y-89211904D01*
X170227676Y-89211904D02*
X170322914Y-89164285D01*
X170322914Y-89164285D02*
X170513390Y-89116666D01*
X170513390Y-89116666D02*
X170656247Y-89116666D01*
X170656247Y-89116666D02*
X170846723Y-89164285D01*
X170846723Y-89164285D02*
X170941961Y-89211904D01*
X170941961Y-89211904D02*
X171037200Y-89307142D01*
X171037200Y-89307142D02*
X171084819Y-89449999D01*
X171084819Y-89449999D02*
X171084819Y-89688094D01*
X170418152Y-88259523D02*
X171084819Y-88259523D01*
X170037200Y-88497618D02*
X170751485Y-88735713D01*
X170751485Y-88735713D02*
X170751485Y-88116666D01*
X171044819Y-93808094D02*
X170044819Y-93808094D01*
X170044819Y-93808094D02*
X170044819Y-93569999D01*
X170044819Y-93569999D02*
X170092438Y-93427142D01*
X170092438Y-93427142D02*
X170187676Y-93331904D01*
X170187676Y-93331904D02*
X170282914Y-93284285D01*
X170282914Y-93284285D02*
X170473390Y-93236666D01*
X170473390Y-93236666D02*
X170616247Y-93236666D01*
X170616247Y-93236666D02*
X170806723Y-93284285D01*
X170806723Y-93284285D02*
X170901961Y-93331904D01*
X170901961Y-93331904D02*
X170997200Y-93427142D01*
X170997200Y-93427142D02*
X171044819Y-93569999D01*
X171044819Y-93569999D02*
X171044819Y-93808094D01*
X170044819Y-92903332D02*
X170044819Y-92284285D01*
X170044819Y-92284285D02*
X170425771Y-92617618D01*
X170425771Y-92617618D02*
X170425771Y-92474761D01*
X170425771Y-92474761D02*
X170473390Y-92379523D01*
X170473390Y-92379523D02*
X170521009Y-92331904D01*
X170521009Y-92331904D02*
X170616247Y-92284285D01*
X170616247Y-92284285D02*
X170854342Y-92284285D01*
X170854342Y-92284285D02*
X170949580Y-92331904D01*
X170949580Y-92331904D02*
X170997200Y-92379523D01*
X170997200Y-92379523D02*
X171044819Y-92474761D01*
X171044819Y-92474761D02*
X171044819Y-92760475D01*
X171044819Y-92760475D02*
X170997200Y-92855713D01*
X170997200Y-92855713D02*
X170949580Y-92903332D01*
X129824819Y-104908094D02*
X128824819Y-104908094D01*
X128824819Y-104908094D02*
X128824819Y-104669999D01*
X128824819Y-104669999D02*
X128872438Y-104527142D01*
X128872438Y-104527142D02*
X128967676Y-104431904D01*
X128967676Y-104431904D02*
X129062914Y-104384285D01*
X129062914Y-104384285D02*
X129253390Y-104336666D01*
X129253390Y-104336666D02*
X129396247Y-104336666D01*
X129396247Y-104336666D02*
X129586723Y-104384285D01*
X129586723Y-104384285D02*
X129681961Y-104431904D01*
X129681961Y-104431904D02*
X129777200Y-104527142D01*
X129777200Y-104527142D02*
X129824819Y-104669999D01*
X129824819Y-104669999D02*
X129824819Y-104908094D01*
X128920057Y-103955713D02*
X128872438Y-103908094D01*
X128872438Y-103908094D02*
X128824819Y-103812856D01*
X128824819Y-103812856D02*
X128824819Y-103574761D01*
X128824819Y-103574761D02*
X128872438Y-103479523D01*
X128872438Y-103479523D02*
X128920057Y-103431904D01*
X128920057Y-103431904D02*
X129015295Y-103384285D01*
X129015295Y-103384285D02*
X129110533Y-103384285D01*
X129110533Y-103384285D02*
X129253390Y-103431904D01*
X129253390Y-103431904D02*
X129824819Y-104003332D01*
X129824819Y-104003332D02*
X129824819Y-103384285D01*
X132884819Y-80968094D02*
X131884819Y-80968094D01*
X131884819Y-80968094D02*
X131884819Y-80729999D01*
X131884819Y-80729999D02*
X131932438Y-80587142D01*
X131932438Y-80587142D02*
X132027676Y-80491904D01*
X132027676Y-80491904D02*
X132122914Y-80444285D01*
X132122914Y-80444285D02*
X132313390Y-80396666D01*
X132313390Y-80396666D02*
X132456247Y-80396666D01*
X132456247Y-80396666D02*
X132646723Y-80444285D01*
X132646723Y-80444285D02*
X132741961Y-80491904D01*
X132741961Y-80491904D02*
X132837200Y-80587142D01*
X132837200Y-80587142D02*
X132884819Y-80729999D01*
X132884819Y-80729999D02*
X132884819Y-80968094D01*
X132884819Y-79444285D02*
X132884819Y-80015713D01*
X132884819Y-79729999D02*
X131884819Y-79729999D01*
X131884819Y-79729999D02*
X132027676Y-79825237D01*
X132027676Y-79825237D02*
X132122914Y-79920475D01*
X132122914Y-79920475D02*
X132170533Y-80015713D01*
X151018095Y-74004819D02*
X151018095Y-74814342D01*
X151018095Y-74814342D02*
X151065714Y-74909580D01*
X151065714Y-74909580D02*
X151113333Y-74957200D01*
X151113333Y-74957200D02*
X151208571Y-75004819D01*
X151208571Y-75004819D02*
X151399047Y-75004819D01*
X151399047Y-75004819D02*
X151494285Y-74957200D01*
X151494285Y-74957200D02*
X151541904Y-74909580D01*
X151541904Y-74909580D02*
X151589523Y-74814342D01*
X151589523Y-74814342D02*
X151589523Y-74004819D01*
X152589523Y-75004819D02*
X152018095Y-75004819D01*
X152303809Y-75004819D02*
X152303809Y-74004819D01*
X152303809Y-74004819D02*
X152208571Y-74147676D01*
X152208571Y-74147676D02*
X152113333Y-74242914D01*
X152113333Y-74242914D02*
X152018095Y-74290533D01*
D12*
%TO.C,SW1*%
X127830000Y-78060000D02*
X130550000Y-78060000D01*
X127830000Y-78320000D02*
X127290000Y-78320000D01*
X127830000Y-78320000D02*
X127830000Y-78070000D01*
X127830000Y-79890000D02*
X127830000Y-81850000D01*
X127830000Y-83680000D02*
X127830000Y-83420000D01*
X130540000Y-83680000D02*
X127840000Y-83680000D01*
X130550000Y-78060000D02*
X130550000Y-80070000D01*
X130550000Y-81670000D02*
X130550000Y-83680000D01*
%TO.C,D6*%
X168910000Y-79580000D02*
X168910000Y-80780000D01*
X170870000Y-79580000D02*
X168910000Y-79580000D01*
X170870000Y-80780000D02*
X168910000Y-80780000D01*
%TO.C,D5*%
X165982500Y-83820000D02*
X165982500Y-85020000D01*
X167942500Y-83820000D02*
X165982500Y-83820000D01*
X167942500Y-85020000D02*
X165982500Y-85020000D01*
%TO.C,D4*%
X171330000Y-90210000D02*
X172530000Y-90210000D01*
X171330000Y-88250000D02*
X171330000Y-90210000D01*
X172530000Y-88250000D02*
X172530000Y-90210000D01*
%TO.C,D3*%
X171290000Y-94330000D02*
X172490000Y-94330000D01*
X171290000Y-92370000D02*
X171290000Y-94330000D01*
X172490000Y-92370000D02*
X172490000Y-94330000D01*
%TO.C,D2*%
X128670000Y-102910000D02*
X127470000Y-102910000D01*
X128670000Y-104870000D02*
X128670000Y-102910000D01*
X127470000Y-104870000D02*
X127470000Y-102910000D01*
%TO.C,D1*%
X133130000Y-81490000D02*
X134330000Y-81490000D01*
X133130000Y-79530000D02*
X133130000Y-81490000D01*
X134330000Y-79530000D02*
X134330000Y-81490000D01*
%TO.C,U1*%
X144670000Y-76870000D02*
X145370000Y-76870000D01*
X144670000Y-77570000D02*
X144670000Y-76870000D01*
X144670000Y-91090000D02*
X144670000Y-90390000D01*
X145370000Y-91090000D02*
X144670000Y-91090000D01*
X158190000Y-76870000D02*
X158890000Y-76870000D01*
X158890000Y-76870000D02*
X158890000Y-77570000D01*
X158890000Y-90390000D02*
X158890000Y-91090000D01*
X158890000Y-91090000D02*
X158190000Y-91090000D01*
X144030000Y-77570000D02*
X143690000Y-77100000D01*
X144370000Y-77100000D01*
X144030000Y-77570000D01*
G36*
X144030000Y-77570000D02*
G01*
X143690000Y-77100000D01*
X144370000Y-77100000D01*
X144030000Y-77570000D01*
G37*
%TD*%
M02*
